<?xml version="1.0" encoding="utf-8"?>
<!-- Generator: Adobe Illustrator 23.0.2, SVG Export Plug-In . SVG Version: 6.00 Build 0)  -->
<svg version="1.1" id="Calque_1" xmlns="http://www.w3.org/2000/svg" xmlns:xlink="http://www.w3.org/1999/xlink" x="0px" y="0px"
	 viewBox="0 0 105 141" style="enable-background:new 0 0 105 141;" xml:space="preserve">
<style type="text/css">
	.st0{display:none;}
	.st1{display:inline;fill:#0071BC;}
	.st2{display:inline;fill:#FFFFFF;}
	.st3{fill:#FFFFFF;}
	.st4{clip-path:url(#SVGID_2_);}
	.st5{clip-path:url(#SVGID_4_);}
	.st6{clip-path:url(#SVGID_6_);}
	.st7{clip-path:url(#SVGID_8_);}
</style>
<g class="st0">
	<path class="st1" d="M-42,544.93c-0.52,0-0.93-0.42-0.93-0.93V-49c0-0.52,0.42-0.93,0.93-0.93h699c0.52,0,0.93,0.42,0.93,0.93v593
		c0,0.52-0.42,0.93-0.93,0.93H-42z"/>
	<path class="st2" d="M657-49v593H-42V-49H657 M657-50.87H-42c-1.03,0-1.87,0.84-1.87,1.87v593c0,1.03,0.84,1.87,1.87,1.87h699
		c1.03,0,1.87-0.84,1.87-1.87V-49C658.87-50.03,658.03-50.87,657-50.87L657-50.87z"/>
</g>
<g>
	<path class="st3" d="M86.79,15v110.23H14.35V15H86.79 M86.79,10H14.35c-2.76,0-5,2.24-5,5v110.23c0,2.76,2.24,5,5,5h72.43
		c2.76,0,5-2.24,5-5V15C91.79,12.24,89.55,10,86.79,10L86.79,10z"/>
</g>
<g>
	<g>
		<path class="st3" d="M50.67,53.29c2.81,0.06,6.9,1.98,8.28,4.48c2.57,4.67,0.83,11.53,0.21,13.43c-0.97,2.94-3.42,5.1-4.05,5.71
			c-0.3,0.3-0.47,0.7-0.47,1.13c0,1.13,0.92,2.05,2.05,2.05h2.19c4.69,0,8.49,3.8,8.49,8.47v2.35v4.22H33.85v-4.22v-2.35
			c0-4.68,3.8-8.47,8.49-8.47h2.19c1.13,0,2.05-0.92,2.05-2.05c0-0.43-0.17-0.83-0.47-1.13c-0.63-0.61-3.08-2.77-4.05-5.71
			c-0.63-1.91-2.36-8.77,0.21-13.43c1.37-2.5,5.46-4.43,8.28-4.48H50.67 M50.67,51.42h-0.13c-3.4,0.07-8.17,2.28-9.91,5.45
			c-3.2,5.81-0.64,14-0.34,14.92c1.04,3.15,3.45,5.44,4.35,6.3l0.05,0.05c-0.03,0.05-0.09,0.09-0.16,0.09h-2.19
			c-5.71,0-10.36,4.64-10.36,10.34v2.35v4.22c0,1.03,0.84,1.87,1.87,1.87h33.52c1.03,0,1.87-0.84,1.87-1.87v-4.22v-2.35
			c0-5.7-4.65-10.34-10.36-10.34h-2.19c-0.06,0-0.12-0.04-0.16-0.09l0.05-0.04c0.91-0.86,3.31-3.15,4.35-6.3
			c0.3-0.91,2.85-9.1-0.34-14.92c-1.75-3.17-6.52-5.38-9.88-5.45C50.7,51.42,50.69,51.42,50.67,51.42L50.67,51.42z"/>
	</g>
</g>
<g>
	<path class="st3" d="M50.57,20.25c2.9,0,5.25,2.35,5.25,5.25s-2.35,5.25-5.25,5.25s-5.25-2.35-5.25-5.25S47.67,20.25,50.57,20.25
		 M50.57,18.25c-4,0-7.25,3.25-7.25,7.25s3.25,7.25,7.25,7.25s7.25-3.25,7.25-7.25S54.57,18.25,50.57,18.25L50.57,18.25z"/>
</g>
<g>
	<path class="st3" d="M50.57,23.07c1.34,0,2.43,1.09,2.43,2.43c0,1.34-1.09,2.43-2.43,2.43s-2.43-1.09-2.43-2.43
		C48.14,24.16,49.23,23.07,50.57,23.07 M50.57,22.07c-1.89,0-3.43,1.54-3.43,3.43s1.54,3.43,3.43,3.43S54,27.39,54,25.5
		S52.46,22.07,50.57,22.07L50.57,22.07z"/>
</g>
<g>
	<defs>
		<rect id="SVGID_1_" x="4.53" y="20.77" width="30.44" height="30.44"/>
	</defs>
	<clipPath id="SVGID_2_">
		<use xlink:href="#SVGID_1_"  style="overflow:visible;"/>
	</clipPath>
	<g class="st4">
		<path class="st3" d="M76.44,40.19v52.49H23.95V40.19H76.44 M76.44,38.33H23.95c-1.03,0-1.87,0.84-1.87,1.87v52.49
			c0,1.03,0.84,1.87,1.87,1.87h52.49c1.03,0,1.87-0.84,1.87-1.87V40.19C78.31,39.16,77.47,38.33,76.44,38.33L76.44,38.33z"/>
	</g>
</g>
<g>
	<defs>
		
			<rect id="SVGID_3_" x="66.29" y="98.11" transform="matrix(-1 -1.224647e-16 1.224647e-16 -1 163.0158 226.6678)" width="30.44" height="30.44"/>
	</defs>
	<clipPath id="SVGID_4_">
		<use xlink:href="#SVGID_3_"  style="overflow:visible;"/>
	</clipPath>
	<g class="st5">
		<path class="st3" d="M77.31,56.65v52.49H24.82V56.65H77.31 M77.31,54.78H24.82c-1.03,0-1.87,0.84-1.87,1.87v52.49
			c0,1.03,0.84,1.87,1.87,1.87h52.49c1.03,0,1.87-0.84,1.87-1.87V56.65C79.17,55.62,78.34,54.78,77.31,54.78L77.31,54.78z"/>
	</g>
</g>
<g>
	<defs>
		
			<rect id="SVGID_5_" x="4.49" y="97.93" transform="matrix(6.123234e-17 -1 1 6.123234e-17 -93.4476 132.8616)" width="30.44" height="30.44"/>
	</defs>
	<clipPath id="SVGID_6_">
		<use xlink:href="#SVGID_5_"  style="overflow:visible;"/>
	</clipPath>
	<g class="st6">
		<path class="st3" d="M76.4,56.47v52.49H23.91V56.47H76.4 M76.4,54.6H23.91c-1.03,0-1.87,0.84-1.87,1.87v52.49
			c0,1.03,0.84,1.87,1.87,1.87H76.4c1.03,0,1.87-0.84,1.87-1.87V56.47C78.26,55.44,77.43,54.6,76.4,54.6L76.4,54.6z"/>
	</g>
</g>
<g>
	<defs>
		
			<rect id="SVGID_7_" x="66.24" y="20.77" transform="matrix(-1.836970e-16 1 -1 -1.836970e-16 117.4586 -45.4673)" width="30.44" height="30.44"/>
	</defs>
	<clipPath id="SVGID_8_">
		<use xlink:href="#SVGID_7_"  style="overflow:visible;"/>
	</clipPath>
	<g class="st7">
		<path class="st3" d="M77.26,40.19v52.49H24.77V40.19H77.26 M77.26,38.33H24.77c-1.03,0-1.87,0.84-1.87,1.87v52.49
			c0,1.03,0.84,1.87,1.87,1.87h52.49c1.03,0,1.87-0.84,1.87-1.87V40.19C79.13,39.16,78.29,38.33,77.26,38.33L77.26,38.33z"/>
	</g>
</g>
</svg>
